<mxfile host="65bd71144e">
    <diagram id="QODsFq8zSfddrYQanfZE" name="Page-1">
        <mxGraphModel dx="1093" dy="815" grid="1" gridSize="10" guides="1" tooltips="1" connect="1" arrows="1" fold="1" page="1" pageScale="1" pageWidth="1169" pageHeight="827" math="0" shadow="0">
            <root>
                <mxCell id="0"/>
                <mxCell id="1" parent="0"/>
                <mxCell id="2" value="E-mail tárgya" style="rounded=0;whiteSpace=wrap;html=1;fontSize=16;fillColor=#fff2cc;strokeColor=#d6b656;fontColor=#000000;" parent="1" vertex="1">
                    <mxGeometry x="40" y="40" width="600" height="40" as="geometry"/>
                </mxCell>
                <mxCell id="67" value="82" style="shape=step;perimeter=stepPerimeter;whiteSpace=wrap;html=1;fixedSize=1;strokeColor=#36393d;fontSize=16;fillColor=#cce5ff;fontColor=#000000;" parent="1" vertex="1">
                    <mxGeometry x="210" y="100" width="120" height="40" as="geometry"/>
                </mxCell>
                <mxCell id="72" value=";" style="shape=step;perimeter=stepPerimeter;whiteSpace=wrap;html=1;fixedSize=1;strokeColor=#b85450;fontSize=16;fillColor=#f8cecc;size=10;fillStyle=auto;fontColor=#000000;" parent="1" vertex="1">
                    <mxGeometry x="165" y="100" width="40" height="40" as="geometry"/>
                </mxCell>
                <mxCell id="77" value="del" style="shape=step;perimeter=stepPerimeter;whiteSpace=wrap;html=1;fixedSize=1;strokeColor=#36393d;fontSize=16;fillColor=#cce5ff;fontColor=#000000;" parent="1" vertex="1">
                    <mxGeometry x="40" y="100" width="120" height="40" as="geometry"/>
                </mxCell>
                <mxCell id="96" value="ticket száma" style="ellipse;shape=cloud;whiteSpace=wrap;html=1;fillStyle=auto;strokeColor=#6c8ebf;fontFamily=Helvetica;fontSize=12;fillColor=#dae8fc;fontColor=#000000;" parent="1" vertex="1">
                    <mxGeometry x="205" y="200" width="120" height="80" as="geometry"/>
                </mxCell>
                <mxCell id="98" value="" style="curved=1;endArrow=classic;html=1;fontFamily=Helvetica;fontSize=12;fontColor=#000000;exitX=0.463;exitY=1.021;exitDx=0;exitDy=0;exitPerimeter=0;entryX=0.4;entryY=0.1;entryDx=0;entryDy=0;entryPerimeter=0;fillColor=#dae8fc;strokeColor=#6c8ebf;" parent="1" source="67" target="96" edge="1">
                    <mxGeometry width="50" height="50" relative="1" as="geometry">
                        <mxPoint x="260" y="200" as="sourcePoint"/>
                        <mxPoint x="310" y="150" as="targetPoint"/>
                        <Array as="points">
                            <mxPoint x="310" y="200"/>
                            <mxPoint x="260" y="150"/>
                        </Array>
                    </mxGeometry>
                </mxCell>
                <mxCell id="99" value="paraméter" style="ellipse;shape=cloud;whiteSpace=wrap;html=1;fillStyle=auto;strokeColor=#6c8ebf;fontFamily=Helvetica;fontSize=12;fillColor=#dae8fc;fontColor=#000000;" parent="1" vertex="1">
                    <mxGeometry x="40" y="200" width="120" height="80" as="geometry"/>
                </mxCell>
                <mxCell id="100" value="" style="curved=1;endArrow=classic;html=1;fontFamily=Helvetica;fontSize=12;fontColor=#000000;exitX=0.463;exitY=1.021;exitDx=0;exitDy=0;exitPerimeter=0;entryX=0.4;entryY=0.1;entryDx=0;entryDy=0;entryPerimeter=0;fillColor=#dae8fc;strokeColor=#6c8ebf;" parent="1" target="99" edge="1">
                    <mxGeometry width="50" height="50" relative="1" as="geometry">
                        <mxPoint x="87.56000000000006" y="140.00000000000003" as="sourcePoint"/>
                        <mxPoint x="164.9999999999999" y="207.16" as="targetPoint"/>
                        <Array as="points">
                            <mxPoint x="150" y="180"/>
                            <mxPoint x="132" y="199.16"/>
                            <mxPoint x="88" y="200"/>
                            <mxPoint x="82" y="149.16"/>
                        </Array>
                    </mxGeometry>
                </mxCell>
                <mxCell id="101" value="megoldódott a probléma" style="shape=step;perimeter=stepPerimeter;whiteSpace=wrap;html=1;fixedSize=1;strokeColor=#36393d;fontSize=16;fillColor=#cce5ff;fontColor=#000000;" vertex="1" parent="1">
                    <mxGeometry x="375" y="100" width="265" height="40" as="geometry"/>
                </mxCell>
                <mxCell id="102" value=";" style="shape=step;perimeter=stepPerimeter;whiteSpace=wrap;html=1;fixedSize=1;strokeColor=#b85450;fontSize=16;fillColor=#f8cecc;size=10;fillStyle=auto;fontColor=#000000;" vertex="1" parent="1">
                    <mxGeometry x="330" y="100" width="40" height="40" as="geometry"/>
                </mxCell>
                <mxCell id="103" value="rövid indoklás" style="ellipse;shape=cloud;whiteSpace=wrap;html=1;fillStyle=auto;strokeColor=#6c8ebf;fontFamily=Helvetica;fontSize=12;fillColor=#dae8fc;fontColor=#000000;" vertex="1" parent="1">
                    <mxGeometry x="447.5" y="200" width="120" height="80" as="geometry"/>
                </mxCell>
                <mxCell id="104" value="" style="curved=1;endArrow=classic;html=1;fontFamily=Helvetica;fontSize=12;fontColor=#000000;exitX=0.463;exitY=1.021;exitDx=0;exitDy=0;exitPerimeter=0;entryX=0.4;entryY=0.1;entryDx=0;entryDy=0;entryPerimeter=0;fillColor=#dae8fc;strokeColor=#6c8ebf;" edge="1" parent="1">
                    <mxGeometry width="50" height="50" relative="1" as="geometry">
                        <mxPoint x="523.06" y="139.99999999999991" as="sourcePoint"/>
                        <mxPoint x="510.5" y="207.16" as="targetPoint"/>
                        <Array as="points">
                            <mxPoint x="567.5" y="199.16"/>
                            <mxPoint x="517.5" y="149.16"/>
                        </Array>
                    </mxGeometry>
                </mxCell>
            </root>
        </mxGraphModel>
    </diagram>
</mxfile>